<svg id="Layer_5" enable-background="new 0 0 64 64" height="512" viewBox="0 0 64 64" width="512" xmlns="http://www.w3.org/2000/svg"><path d="m59 33v-9c0-2.757-2.243-5-5-5h-26c-.783 0-1.514.197-2.174.519-1.507-1.75-3.397-3.047-5.519-3.787 2.217-1.425 3.693-3.907 3.693-6.732 0-4.411-3.589-8-8-8s-8 3.589-8 8c0 2.833 1.484 5.32 3.711 6.742-5.064 1.777-8.711 6.594-8.711 12.258v5h-2v30h62v-30zm-25 16v-4h14v4zm-6-6c-1.654 0-3-1.346-3-3v-1h32v1c0 1.654-1.346 3-3 3zm26-22c1.654 0 3 1.346 3 3v13h-32v-13c0-1.654 1.346-3 3-3zm-44-12c0-3.309 2.691-6 6-6s6 2.691 6 6-2.691 6-6 6-6-2.691-6-6zm-5 19c0-6.065 4.935-11 11-11 3.201 0 6.152 1.36 8.242 3.738-.763.878-1.242 2.01-1.242 3.262v9h-13v-9h-2v9h-3zm18 7v5c0 2.757 2.243 5 5 5h4v4h-4v2h26v-2h-4v-4h4c2.757 0 5-2.243 5-5v-5h2v20h-58v-20zm-20 26v-4h58v4z"/><path d="m14 53c3.04 0 9-1.208 9-4v-8c0-2.792-5.96-4-9-4s-9 1.208-9 4v8c0 2.792 5.96 4 9 4zm0-2c-3.438 0-6.805-1.356-7-2v-1.534c2.013 1.053 5.085 1.534 7 1.534 1.916 0 4.989-.481 7.002-1.535v1.512c-.197.667-3.564 2.023-7.002 2.023zm0-12c3.399 0 6.728 1.326 6.995 2-.267.674-3.596 2-6.995 2-3.431 0-6.789-1.351-7-1.972v-.009c.211-.668 3.569-2.019 7-2.019zm-7 4.466c2.013 1.053 5.085 1.534 7 1.534 1.916 0 4.988-.481 7.001-1.534v1.513c-.204.668-3.566 2.021-7.001 2.021-3.438 0-6.805-1.356-7-2z"/><path d="m29 11c.614 0 1.185-.187 1.661-.505l3.489 2.617c-.089.282-.15.577-.15.888 0 1.654 1.346 3 3 3s3-1.346 3-3c0-.462-.113-.894-.301-1.285l4.015-4.015c.392.187.824.3 1.286.3s.894-.113 1.285-.301l2.015 2.015c-.187.392-.3.824-.3 1.286 0 1.654 1.346 3 3 3s3-1.346 3-3c0-.462-.113-.894-.301-1.285l4.015-4.015c.392.187.824.3 1.286.3 1.654 0 3-1.346 3-3s-1.346-3-3-3-3 1.346-3 3c0 .462.113.894.301 1.285l-4.015 4.015c-.392-.187-.824-.3-1.286-.3s-.894.113-1.285.301l-2.015-2.015c.187-.392.3-.824.3-1.286 0-1.654-1.346-3-3-3s-3 1.346-3 3c0 .462.113.894.301 1.285l-4.015 4.015c-.392-.187-.824-.3-1.286-.3-.614 0-1.185.187-1.661.505l-3.489-2.617c.089-.282.15-.577.15-.888 0-1.654-1.346-3-3-3s-3 1.346-3 3 1.346 3 3 3zm30-8c.551 0 1 .449 1 1s-.449 1-1 1-1-.449-1-1 .449-1 1-1zm-7 9c0 .551-.449 1-1 1s-1-.449-1-1 .449-1 1-1 1 .449 1 1zm-7-7c.551 0 1 .449 1 1s-.449 1-1 1-1-.449-1-1 .449-1 1-1zm-8 8c.551 0 1 .449 1 1s-.449 1-1 1-1-.449-1-1 .449-1 1-1zm-8-6c.551 0 1 .449 1 1s-.449 1-1 1-1-.449-1-1 .449-1 1-1z"/><path d="m54 33h-2v-10h-6v10h-2v-6h-6v6h-2v-8h-6v8h-2v2h26zm-6-8h2v8h-2zm-8 4h2v4h-2zm-8-2h2v6h-2z"/></svg>