<svg height="480pt" viewBox="-56 0 480 480" width="480pt" xmlns="http://www.w3.org/2000/svg"><path d="m344 64h-8v-8c0-13.253906-10.746094-24-24-24h-8v-8c0-13.253906-10.746094-24-24-24h-256c-13.253906 0-24 10.746094-24 24v368c0 13.253906 10.746094 24 24 24h8v8c0 13.253906 10.746094 24 24 24h8v8c0 13.253906 10.746094 24 24 24h256c13.253906 0 24-10.746094 24-24v-368c0-13.253906-10.746094-24-24-24zm-40 16h16v29.601562l-1.34375-2.015624c-1.570312-2.101563-4.035156-3.335938-6.65625-3.335938s-5.085938 1.234375-6.65625 3.335938l-1.34375 2.015624zm-280 320c-4.417969 0-8-3.582031-8-8v-368c0-4.417969 3.582031-8 8-8h256c4.417969 0 8 3.582031 8 8v8h-232c-13.253906 0-24 10.746094-24 24v344zm32 32c-4.417969 0-8-3.582031-8-8v-368c0-4.417969 3.582031-8 8-8h256c4.417969 0 8 3.582031 8 8v8h-232c-13.253906 0-24 10.746094-24 24v344zm296 24c0 4.417969-3.582031 8-8 8h-256c-4.417969 0-8-3.582031-8-8v-368c0-4.417969 3.582031-8 8-8h200v56c0 3.527344 2.304688 6.636719 5.679688 7.65625 3.375 1.023438 7.019531-.28125 8.976562-3.214844l9.34375-14.042968 9.34375 14.015624c1.953125 2.929688 5.59375 4.238282 8.964844 3.222657s5.683594-4.117188 5.691406-7.636719v-56h8c4.417969 0 8 3.582031 8 8zm0 0"/><path d="m112 112h48v16h-48zm0 0"/><path d="m112 144h80v16h-80zm0 0"/><path d="m112 336h208v16h-208zm0 0"/><path d="m112 368h208v16h-208zm0 0"/><path d="m112 400h208v16h-208zm0 0"/><path d="m120 256h32v32h16v-56c0-13.253906-10.746094-24-24-24h-16c-13.253906 0-24 10.746094-24 24v56h16zm8-32h16c4.417969 0 8 3.582031 8 8v8h-32v-8c0-4.417969 3.582031-8 8-8zm0 0"/><path d="m184 216v64c0 4.417969 3.582031 8 8 8h32c9.484375.042969 18.097656-5.53125 21.945312-14.199219 3.847657-8.667969 2.207032-18.792969-4.183593-25.800781 6.390625-7.007812 8.03125-17.132812 4.183593-25.800781-3.847656-8.667969-12.460937-14.242188-21.945312-14.199219h-32c-4.417969 0-8 3.582031-8 8zm40 56h-24v-16h24c4.417969 0 8 3.582031 8 8s-3.582031 8-8 8zm-24-48h24c4.417969 0 8 3.582031 8 8s-3.582031 8-8 8h-24zm0 0"/><path d="m288 224h16c4.417969 0 8 3.582031 8 8h16c0-13.253906-10.746094-24-24-24h-16c-13.253906 0-24 10.746094-24 24v32c0 13.253906 10.746094 24 24 24h16c13.253906 0 24-10.746094 24-24h-16c0 4.417969-3.582031 8-8 8h-16c-4.417969 0-8-3.582031-8-8v-32c0-4.417969 3.582031-8 8-8zm0 0"/></svg>