<?xml version="1.0"?>
<svg xmlns="http://www.w3.org/2000/svg" id="Outline" viewBox="0 0 512 512" width="512" height="512"><path d="M72,496H368a111.991,111.991,0,0,0,48-213.179V120a8,8,0,0,0-2.343-5.657l-96-96A8,8,0,0,0,312,16H72A40.045,40.045,0,0,0,32,56V456A40.045,40.045,0,0,0,72,496ZM464,384a96,96,0,1,1-96-96A96.108,96.108,0,0,1,464,384ZM320,43.313,388.687,112H344a24.027,24.027,0,0,1-24-24ZM48,56A24.028,24.028,0,0,1,72,32H304V88a40.045,40.045,0,0,0,40,40h56V276.666A111.983,111.983,0,0,0,310.369,480H72a24.028,24.028,0,0,1-24-24Z"/><path d="M160,168a8,8,0,0,0,8,8H360a8,8,0,0,0,0-16H168A8,8,0,0,0,160,168Z"/><path d="M88,224H248a8,8,0,0,0,0-16H88a8,8,0,0,0,0,16Z"/><path d="M280,256H216a8,8,0,0,0,0,16h64a8,8,0,0,0,0-16Z"/><path d="M88,320H232a8,8,0,0,0,0-16H88a8,8,0,0,0,0,16Z"/><path d="M88,176h48a8,8,0,0,0,0-16H88a8,8,0,0,0,0,16Z"/><path d="M360,208H280a8,8,0,0,0,0,16h80a8,8,0,0,0,0-16Z"/><path d="M88,272h96a8,8,0,0,0,0-16H88a8,8,0,0,0,0,16Z"/><path d="M216,400H184a8,8,0,0,0,0,16h32a8,8,0,0,0,0-16Z"/><path d="M88,416h64a8,8,0,0,0,0-16H88a8,8,0,0,0,0,16Z"/><path d="M88,368h48a8,8,0,0,0,0-16H88a8,8,0,0,0,0,16Z"/><path d="M88,128h96a8,8,0,0,0,0-16H88a8,8,0,0,0,0,16Z"/><path d="M216,352H168a8,8,0,0,0,0,16h48a8,8,0,0,0,0-16Z"/><path d="M325.657,402.343a8,8,0,0,0-11.314,11.314l32,32A8,8,0,0,0,352,448q.394,0,.789-.039a8,8,0,0,0,5.868-3.523l64-96a8,8,0,0,0-13.312-8.876l-58.587,87.881Z"/></svg>
