<?xml version="1.0" encoding="iso-8859-1"?>
<!-- Generator: Adobe Illustrator 19.0.0, SVG Export Plug-In . SVG Version: 6.00 Build 0)  -->
<svg version="1.1" id="Layer_1" xmlns="http://www.w3.org/2000/svg" xmlns:xlink="http://www.w3.org/1999/xlink" x="0px" y="0px"
	 viewBox="0 0 512 512" style="enable-background:new 0 0 512 512;" xml:space="preserve">
<g>
	<g>
		<rect x="38.987" y="154.63" width="154.536" height="15.595"/>
	</g>
</g>
<g>
	<g>
		<rect x="38.987" y="217.01" width="184.02" height="15.595"/>
	</g>
</g>
<g>
	<g>
		<rect x="38.987" y="248.199" width="218.329" height="15.595"/>
	</g>
</g>
<g>
	<g>
		<rect x="38.987" y="279.389" width="249.519" height="15.595"/>
	</g>
</g>
<g>
	<g>
		<rect x="38.987" y="310.579" width="249.519" height="15.595"/>
	</g>
</g>
<g>
	<g>
		<rect x="38.987" y="341.769" width="249.519" height="15.595"/>
	</g>
</g>
<g>
	<g>
		<rect x="38.987" y="372.959" width="197.536" height="15.595"/>
	</g>
</g>
<g>
	<g>
		<rect x="163.747" y="435.339" width="124.76" height="15.595"/>
	</g>
</g>
<g>
	<g>
		<path d="M428.518,276.128l-9.423,4.394l-20.508-43.981c49.211-33.903,68.315-99.502,42.236-155.43V81.11
			c-29.073-62.346-103.45-89.418-165.796-60.344c-41.925,19.551-67.897,59.586-71.575,102.674H90.971v15.595h112.135
			c0.635,15.745,4.283,31.612,11.241,46.785H38.987v15.595H222.89c20.311,31.563,53.336,51.49,89.009,56.12v229.788H88.371v-72.776
			H15.595V87.052h187.909V71.457H0v354.116l77.345,77.345h250.149V258.582c0.15,0.001,0.299,0.008,0.449,0.008
			c10.974,0,22.053-1.457,32.956-4.466l15.013,32.195l14.134-6.59l-14.33-30.731c1.594-0.664,3.182-1.353,4.762-2.089
			c1.578-0.736,3.128-1.509,4.662-2.302l19.821,42.507l-32.979,15.378l83.483,179.029L512,455.156L428.518,276.128z M72.776,476.295
			l-46.155-46.155h46.155V476.295z M373.888,232.774c-54.556,25.44-119.633,1.752-145.073-52.801
			C203.377,125.418,227.063,60.34,281.617,34.9c14.881-6.939,30.54-10.222,45.968-10.222c41.134,0,80.604,23.35,99.104,63.023
			C452.128,142.256,428.441,207.336,373.888,232.774z M449.826,432.528l-57.119-122.493l28.268-13.182l57.119,122.493
			L449.826,432.528z M456.417,446.661l28.267-13.181l6.59,14.134l-28.267,13.181L456.417,446.661z"/>
	</g>
</g>
<g>
	<g>
		<path d="M327.752,48.064c-47.295,0-85.772,38.477-85.772,85.772s38.477,85.772,85.772,85.772s85.772-38.477,85.772-85.772
			S375.047,48.064,327.752,48.064z M327.752,63.659c26.878,0,50.263,15.196,62.047,37.44c-17.792-17.029-38.327-26.31-59.581-26.978
			c-0.817-0.043-1.639-0.065-2.466-0.065c-26.898,0-47.669,13.212-61.933,26.822C277.64,78.754,300.963,63.659,327.752,63.659z
			 M358.942,120.841c0,17.198-13.992,31.19-31.19,31.19s-31.19-13.992-31.19-31.19c0-17.198,13.992-31.19,31.19-31.19
			c0.548,0,1.092,0.03,1.638,0.044C345.83,90.549,358.942,104.193,358.942,120.841z M283.244,106.442
			c-1.472,4.539-2.277,9.376-2.277,14.398c0,25.797,20.988,46.785,46.785,46.785c25.797,0,46.785-20.988,46.785-46.785
			c0-5.027-0.807-9.867-2.281-14.41c2.449,1.966,4.87,4.082,7.251,6.39l10.662-11c4.661,9.05,7.407,19.234,7.71,30.022
			c-5.081,8.478-29.949,46.179-70.127,46.179c-18.587,0-36.097-7.888-52.044-23.445c-8.238-8.037-13.947-16.185-16.847-20.743
			C262.562,128.018,270.86,116.337,283.244,106.442z M327.752,204.014c-26.789,0-50.112-15.094-61.933-37.219
			c14.264,13.61,35.035,26.822,61.933,26.822c26.899,0,47.67-13.212,61.934-26.822C377.864,188.92,354.541,204.014,327.752,204.014z
			"/>
	</g>
</g>
<g>
	<g>
		<path d="M327.752,97.448c-12.899,0-23.392,10.493-23.392,23.392s10.493,23.392,23.392,23.392
			c12.899,0,23.392-10.493,23.392-23.392S340.651,97.448,327.752,97.448z M327.752,128.638c-4.3,0-7.797-3.497-7.797-7.797
			s3.497-7.797,7.797-7.797s7.797,3.497,7.797,7.797S332.052,128.638,327.752,128.638z"/>
	</g>
</g>
<g>
</g>
<g>
</g>
<g>
</g>
<g>
</g>
<g>
</g>
<g>
</g>
<g>
</g>
<g>
</g>
<g>
</g>
<g>
</g>
<g>
</g>
<g>
</g>
<g>
</g>
<g>
</g>
<g>
</g>
</svg>
